<svg width="128" height="128" viewBox="0 0 128 128" fill="none" xmlns="http://www.w3.org/2000/svg">
	<path
		d="M89 111.976H39V97.748L43.4715 94.4959V91.2439C43.4715 91.2439 44.3186 90.3165 45.56 88.8049C48.4009 85.3455 53.307 78.8262 54.8537 73.3577C57.0762 65.4996 54.0407 51 54.0407 51H75.1789C75.1789 51 71.7272 63.0606 73.5528 70.9187C74.8802 76.632 79.8644 84.7817 82.4863 88.8049C83.4706 90.3152 84.122 91.2439 84.122 91.2439V94.4959L89 97.748V111.976Z"
		fill="url(#paint0_linear_1_194)"
	/>
	<path
		d="M43.4715 94.4959L39 97.748V111.976H89V97.748L84.122 94.4959M43.4715 94.4959V91.2439C43.4715 91.2439 44.3186 90.3165 45.56 88.8049M43.4715 94.4959H84.122M84.122 94.4959V91.2439C84.122 91.2439 83.4706 90.3152 82.4863 88.8049M45.56 88.8049C48.4009 85.3455 53.307 78.8262 54.8537 73.3577C57.0762 65.4996 54.0407 51 54.0407 51H75.1789C75.1789 51 71.7272 63.0606 73.5528 70.9187C74.8802 76.632 79.8644 84.7817 82.4863 88.8049M45.56 88.8049H82.4863"
		stroke="white"
		stroke-width="3.67464"
	/>
	<path
		d="M67.4832 29.4392C68.8087 28.1779 70.1538 25.8972 70.1538 23.9231C70.1538 20.0995 67.0544 17 63.2308 17C59.4072 17 56.3077 20.0995 56.3077 23.9231C56.3077 26.1744 58.1895 28.1749 59.8538 29.4392L56.3077 34.3077C56.3077 34.3077 51.0756 33.7818 47.8462 34.3077C44.6167 34.8335 39 38.5385 39 38.5385C39 38.5385 45.668 41.3697 47.8462 43.9231C50.0243 46.4764 53.2308 51.6154 53.2308 51.6154H50.5385V60.0769H77.8461V51.6154H75.5385C75.5385 51.6154 77.91 46.4764 80.5385 43.9231C83.1669 41.3697 89 38.5385 89 38.5385C89 38.5385 83.9181 34.8335 80.5385 34.3077C77.1588 33.7818 71.6923 34.3077 71.6923 34.3077L67.4832 29.4392Z"
		fill="url(#paint1_linear_1_194)"
	/>
	<path
		d="M53.2308 51.6154C53.2308 51.6154 50.0243 46.4764 47.8462 43.9231C45.668 41.3697 39 38.5385 39 38.5385C39 38.5385 44.6167 34.8335 47.8462 34.3077C51.0756 33.7818 56.3077 34.3077 56.3077 34.3077L59.8538 29.4392C58.1895 28.1749 56.3077 26.1744 56.3077 23.9231C56.3077 20.0995 59.4071 17 63.2308 17C67.0544 17 70.1538 20.0995 70.1538 23.9231C70.1538 25.8972 68.8087 28.1779 67.4832 29.4392L71.6923 34.3077C71.6923 34.3077 77.1588 33.7818 80.5385 34.3077C83.9181 34.8335 89 38.5385 89 38.5385C89 38.5385 83.1669 41.3697 80.5385 43.9231C77.91 46.4764 75.5385 51.6154 75.5385 51.6154M53.2308 51.6154H50.5385V60.0769H77.8462V51.6154H75.5385M53.2308 51.6154H75.5385"
		stroke="white"
		stroke-width="3.67464"
	/>
	<defs>
		<linearGradient
			id="paint0_linear_1_194"
			x1="64"
			y1="51"
			x2="64"
			y2="111.976"
			gradientUnits="userSpaceOnUse"
		>
			<stop stop-color="#38180B" />
			<stop offset="1" stop-color="#3A1A0C" />
		</linearGradient>
		<linearGradient
			id="paint1_linear_1_194"
			x1="64"
			y1="17"
			x2="64"
			y2="60.0769"
			gradientUnits="userSpaceOnUse"
		>
			<stop stop-color="#38180B" />
			<stop offset="1" stop-color="#3A1A0C" />
		</linearGradient>
	</defs>
</svg>
